<?xml version="1.0" encoding="UTF-8"?>
<svg width="12px" height="24px" viewBox="0 0 12 24" version="1.1" xmlns="http://www.w3.org/2000/svg" xmlns:xlink="http://www.w3.org/1999/xlink">
    <title>mongodb</title>
    <g id="Page-1" stroke="none" stroke-width="1" fill="none" fill-rule="evenodd">
        <g id="mongodb" transform="translate(0.609435, 0.000250)" fill="#47A248" fill-rule="nonzero">
            <path d="M10.5835649,9.555 C9.31956494,3.975 6.33156494,2.141 6.01056494,1.44 C5.73056494,1.046 5.48056494,0.486 5.27556494,0 C5.23956494,0.495 5.22056494,0.685 4.75256494,1.184 C4.02956494,1.75 0.31456494,4.866 0.0125649396,11.204 C-0.26943506,17.116 4.28256494,20.639 4.90056494,21.088 L4.97056494,21.138 C5.09925557,22.089752 5.20927671,23.0439353 5.30056494,24 L5.78156494,24 C5.89556494,22.968 6.06556494,21.944 6.29156494,20.93 C6.70856494,20.634 6.89556494,20.467 7.14156494,20.237 C9.49742873,18.0575829 10.8196908,14.9821155 10.7805649,11.773 C10.7905649,10.959 10.6775649,10.111 10.5835649,9.555 Z M5.24756494,17.75 C5.24756494,17.75 5.24756494,9.459 5.52256494,9.46 C5.73556494,9.46 6.01256494,20.155 6.01256494,20.155 C5.63156494,20.11 5.24756494,18.395 5.24756494,17.75 Z" id="Shape"></path>
        </g>
    </g>
</svg>