<?xml version="1.0" encoding="UTF-8"?>
<svg width="22px" height="48px" viewBox="0 0 22 48" version="1.1" xmlns="http://www.w3.org/2000/svg" xmlns:xlink="http://www.w3.org/1999/xlink">
    <title>mongodb</title>
    <g id="Page-1" stroke="none" stroke-width="1" fill="none" fill-rule="evenodd">
        <g id="mongodb" fill="#47A248" fill-rule="nonzero">
            <path d="M21.5962889,19.11 C19.0170342,7.95 12.9198721,4.282 12.2648557,2.88 C11.6935018,2.092 11.1833644,0.972 10.7650518,0 C10.691592,0.99 10.6528215,1.37 9.69784433,2.368 C8.22252699,3.5 0.641885351,9.732 0.0256393821,22.408 C-0.549795596,34.232 8.73878603,41.278 9.99984566,42.176 L10.1426841,42.276 C10.4052837,44.1795041 10.6297873,46.0878707 10.8160655,48 L11.7975698,48 C12.0301925,45.936 12.3770859,43.888 12.8382501,41.86 C13.6891593,41.268 14.0707421,40.934 14.5727172,40.474 C19.3799741,36.1151658 22.0781153,29.964231 21.9982771,23.546 C22.0186826,21.918 21.7881005,20.222 21.5962889,19.11 Z M10.7079164,35.5 C10.7079164,35.5 10.7079164,18.918 11.2690675,18.92 C11.7037046,18.92 12.2689368,40.31 12.2689368,40.31 C11.4914874,40.22 10.7079164,36.79 10.7079164,35.5 Z" id="Shape"></path>
        </g>
    </g>
</svg>