<?xml version="1.0" encoding="UTF-8"?>
<svg width="22px" height="24px" viewBox="0 0 22 24" version="1.1" xmlns="http://www.w3.org/2000/svg" xmlns:xlink="http://www.w3.org/1999/xlink">
    <title>nodedotjs</title>
    <g id="Page-1" stroke="none" stroke-width="1" fill="none" fill-rule="evenodd">
        <g id="nodedotjs" transform="translate(0.358000, 0.000000)" fill="#339933" fill-rule="nonzero">
            <path d="M10.64,24.00025 C10.319,24.00025 9.999,23.91625 9.718,23.75325 L6.782,22.01625 C6.344,21.77125 6.558,21.68425 6.702,21.63325 C7.287,21.43025 7.405,21.38325 8.03,21.02925 C8.095,20.99225 8.181,21.00625 8.248,21.04625 L10.504,22.38525 C10.586,22.43025 10.701,22.43025 10.776,22.38525 L19.571,17.30925 C19.653,17.26225 19.705,17.16825 19.705,17.07125 L19.705,6.92125 C19.705,6.82225 19.652,6.72925 19.568,6.67925 L10.777,1.60725 C10.696,1.56025 10.588,1.56025 10.506,1.60725 L1.717,6.68025 C1.632,6.72925 1.578,6.82525 1.578,6.92125 L1.578,17.07125 C1.578,17.16825 1.632,17.26025 1.717,17.30625 L4.126,18.69825 C5.433,19.35225 6.234,18.58225 6.234,17.80825 L6.234,7.78725 C6.234,7.64525 6.348,7.53425 6.49,7.53425 L7.605,7.53425 C7.744,7.53425 7.86,7.64625 7.86,7.78725 L7.86,17.80825 C7.86,19.55325 6.91,20.55325 5.256,20.55325 C4.748,20.55325 4.347,20.55325 3.23,20.00225 L0.922,18.67525 C0.352,18.34625 0,17.73025 0,17.07125 L0,6.92125 C0,6.26225 0.353,5.64625 0.922,5.31825 L9.717,0.23625 C10.274,-0.07875 11.013,-0.07875 11.565,0.23625 L20.359,5.31825 C20.929,5.64725 21.283,6.26225 21.283,6.92125 L21.283,17.07125 C21.283,17.73025 20.929,18.34425 20.359,18.67525 L11.565,23.75325 C11.285,23.91625 10.966,24.00025 10.64,24.00025 Z M17.741,13.99325 C17.741,12.09325 16.457,11.58725 13.754,11.23025 C11.023,10.86925 10.745,10.68225 10.745,10.04325 C10.745,9.51525 10.98,8.81025 13.003,8.81025 C14.81,8.81025 15.476,9.19925 15.75,10.41725 C15.774,10.53225 15.879,10.61625 15.997,10.61625 L17.138,10.61625 C17.209,10.61625 17.276,10.58525 17.324,10.53525 C17.372,10.48125 17.398,10.41225 17.391,10.33925 C17.214,8.24125 15.82,7.26325 13.003,7.26325 C10.495,7.26325 8.999,8.32125 8.999,10.09625 C8.999,12.02125 10.487,12.55325 12.894,12.79125 C15.774,13.07325 15.997,13.49425 15.997,14.06025 C15.997,15.04325 15.208,15.46225 13.355,15.46225 C11.028,15.46225 10.516,14.87825 10.344,13.72025 C10.324,13.59625 10.218,13.50525 10.091,13.50525 L8.954,13.50525 C8.813,13.50525 8.7,13.61725 8.7,13.75825 C8.7,15.24025 9.506,17.0062507 13.355,17.0062507 C16.143,17.00725 17.741,15.91025 17.741,13.99325 Z" id="Shape"></path>
        </g>
    </g>
</svg>