<?xml version="1.0" encoding="UTF-8"?>
<svg width="43px" height="48px" viewBox="0 0 43 48" version="1.1" xmlns="http://www.w3.org/2000/svg" xmlns:xlink="http://www.w3.org/1999/xlink">
    <title>nodedotjs</title>
    <g id="Page-1" stroke="none" stroke-width="1" fill="none" fill-rule="evenodd">
        <g id="nodedotjs" fill="#339933" fill-rule="nonzero">
            <path d="M21.4969694,48 C20.8484236,48 20.2018982,47.8320017 19.6341681,47.5060051 L13.7022976,44.0320413 C12.817366,43.5420464 13.2497298,43.3680482 13.5406663,43.2660493 C14.7225955,42.8600535 14.9610017,42.7660545 16.2237467,42.0580619 C16.3550721,41.9840627 16.5288258,42.0120624 16.6641921,42.0920615 L21.2221961,44.7700336 C21.3878683,44.8600327 21.6202133,44.8600327 21.7717427,44.7700336 L39.5410891,34.6181394 C39.7067613,34.5241404 39.8118216,34.3361423 39.8118216,34.1421444 L39.8118216,13.8423558 C39.8118216,13.6443579 39.7047409,13.4583598 39.535028,13.3583609 L21.7737631,3.21446652 C21.6101114,3.1204675 21.391909,3.1204675 21.2262369,3.21446652 L3.46901283,13.3603608 C3.29727952,13.4583598 3.18817836,13.6503578 3.18817836,13.8423558 L3.18817836,34.1421444 C3.18817836,34.3361423 3.29727952,34.5201404 3.46901283,34.6121395 L8.33613682,37.3961105 C10.976789,38.7040968 12.5951229,37.1641129 12.5951229,35.616129 L12.5951229,15.5743378 C12.5951229,15.2903407 12.8254475,15.068343 13.1123432,15.068343 L15.3650801,15.068343 C15.6459146,15.068343 15.88028,15.2923407 15.88028,15.5743378 L15.88028,35.616129 C15.88028,39.1060926 13.9609078,41.1060718 10.6191796,41.1060718 C9.59282056,41.1060718 8.78264342,41.1060718 6.52586571,40.0040833 L1.8628013,37.3501109 C0.711177935,36.6921178 0,35.4601306 0,34.1421444 L0,13.8423558 C0,12.5243695 0.713198327,11.2923824 1.8628013,10.6363892 L19.6321477,0.472495078 C20.757506,-0.157498359 22.2505756,-0.157498359 23.3658319,0.472495078 L41.1331579,10.6363892 C42.2847813,11.2943824 43,12.5243695 43,13.8423558 L43,34.1421444 C43,35.4601306 42.2847813,36.6881178 41.1331579,37.3501109 L23.3658319,47.5060051 C22.8001222,47.8320017 22.1556172,48 21.4969694,48 Z M35.843772,27.9862085 C35.843772,24.1862481 33.2495889,23.1742586 27.7884697,22.460266 C22.2707795,21.7382736 21.7091106,21.3642775 21.7091106,20.0862908 C21.7091106,19.0303018 22.1839026,17.6203165 26.2711554,17.6203165 C29.9220035,17.6203165 31.2675845,18.3983084 31.8211718,20.834283 C31.8696612,21.0642806 32.0818024,21.2322788 32.3202086,21.2322788 L34.6254757,21.2322788 C34.7689236,21.2322788 34.9042898,21.1702795 35.0012686,21.0702805 C35.0982474,20.9622816 35.1507776,20.8242831 35.1366349,20.6782846 C34.7790255,16.4823283 31.9625993,14.5263487 26.2711554,14.5263487 C21.2040126,14.5263487 18.1815064,16.6423266 18.1815064,20.1922897 C18.1815064,24.0422496 21.1878495,25.1062385 26.0509327,25.5822335 C31.8696612,26.1462276 32.3202086,26.9882189 32.3202086,28.1202071 C32.3202086,30.0861866 30.7261194,30.9241779 26.9823333,30.9241779 C22.2808815,30.9241779 21.2464408,29.75619 20.8989334,27.4402142 C20.8585256,27.1922167 20.644364,27.0102186 20.3877743,27.0102186 L18.0905887,27.0102186 C17.8057135,27.0102186 17.5774092,27.2342163 17.5774092,27.5162134 C17.5774092,30.4801825 19.205845,34.0121471 26.9823333,34.0121471 C32.6151858,34.0141457 35.843772,31.8201685 35.843772,27.9862085 Z" id="Shape"></path>
        </g>
    </g>
</svg>