<?xml version="1.0" encoding="UTF-8"?>
<svg width="46px" height="48px" viewBox="0 0 46 48" version="1.1" xmlns="http://www.w3.org/2000/svg" xmlns:xlink="http://www.w3.org/1999/xlink">
    <title>postgresql</title>
    <g id="Page-1" stroke="none" stroke-width="1" fill="none" fill-rule="evenodd">
        <g id="postgresql" fill="#4169E1" fill-rule="nonzero">
            <path d="M45.9500357,29.4456028 C45.9228154,29.3618049 45.8852627,29.2817796 45.838258,29.2074028 C45.5622879,28.6810028 44.8916212,28.5238028 43.8381702,28.7432028 C40.5557153,29.4254028 39.2846649,29.0056028 38.8238545,28.7050028 C41.4882557,24.6086028 43.6781473,19.6610028 44.8616418,15.0456028 C45.4004782,12.9442028 46.4463847,7.99820281 45.1042571,5.58240281 C45.0185039,5.4170503 44.9182389,5.25975678 44.8046609,5.11240281 C42.2446915,1.81720281 38.4875285,0.0496028067 33.9393837,0.00100280672 C30.9718126,-0.0305971933 28.4388446,0.693202807 27.7526918,0.959802807 C27.412828,0.895905562 27.0712756,0.841484776 26.7284261,0.796602807 C25.8689423,0.639822955 24.998139,0.554336246 24.124778,0.541002807 C21.7776431,0.504202807 19.7493627,1.06940281 18.0697178,2.22220281 C16.367638,1.58000281 8.56205432,-1.06779719 3.73138775,2.37980281 C1.03343337,4.30520281 -0.212005432,7.74660281 0.0294187002,12.6086028 C0.110621389,14.2446028 1.03581584,19.2766028 2.49587593,24.0958028 C3.40876093,27.1088028 4.35956699,29.4996028 5.3417423,31.2598028 C6.43966619,33.2482028 7.57709946,34.4464028 8.74530636,34.8388028 C9.63357245,35.1370028 10.9941642,35.1270028 12.4343703,33.3830028 C14.0250695,31.4560028 15.5917453,29.7314028 16.295171,28.9692028 C17.1590168,29.4402028 18.0947338,29.6942028 19.0548712,29.7236028 C19.0550376,29.7263449 19.0553025,29.72908 19.0556654,29.7318028 C18.888482,29.9324515 18.7248595,30.1360838 18.5648756,30.3426028 C17.8920249,31.2030028 17.7520545,31.3820028 15.5863847,31.8312028 C14.970515,31.9592028 13.3341517,32.2990028 13.310327,33.4542028 C13.3053635,33.6990028 13.3756465,33.9160028 13.4927848,34.1078028 C13.9432712,34.9540028 15.3225256,35.3272028 15.5079616,35.3740028 C18.1574723,36.0410028 20.4801869,35.5580028 22.2015251,34.0166028 C22.1677734,38.4786028 22.3553933,42.8514028 22.8872808,44.1914028 C23.3264504,45.2972028 24.3997553,48 27.7896202,48 C28.2869618,48 28.834534,47.9418028 29.4367045,47.8118028 C32.9744813,47.0476028 34.5107806,45.4726028 35.1050096,42 C35.4034146,40.2586028 35.9023446,36.2494028 36.1747409,33.7976028 C36.2082941,33.6570028 36.2456195,33.5562028 36.2879084,33.5252028 C36.2892982,33.5242028 36.4262905,33.4310028 37.1360695,33.5866028 C37.1650851,33.5929355 37.1944574,33.5974772 37.2240226,33.6002028 L37.7281146,33.6448028 L37.757697,33.6468028 C39.4389301,33.7236028 41.5525825,33.3616028 42.7831309,32.7852028 C44.0613287,32.1876028 46.3681601,30.7206028 45.9500357,29.4456028 L45.9500357,29.4456028 Z M3.88267491,23.7530028 C2.40653312,18.8814028 1.54407717,13.9828028 1.47577956,12.6092028 C1.26016557,8.26640281 2.30388815,5.24340281 4.57756345,3.62380281 C8.22413995,1.02660281 14.1864821,2.54220281 16.7043611,3.36380281 C16.6980079,3.37020281 16.6912575,3.37600281 16.6849042,3.38260281 C12.6668602,7.47060281 12.7621592,14.4546028 12.7720862,14.8816028 C12.7716891,15.0462028 12.7851898,15.2794028 12.8042496,15.6002028 C12.8733414,16.7748028 13.001995,18.9610028 12.658323,21.4370028 C12.3388728,23.7378028 13.0428942,25.9898028 14.589716,27.6154028 C14.7497389,27.7836028 14.9169093,27.9416028 15.0896387,28.0902028 C14.4011034,28.8330028 12.9049091,30.4754028 11.3124232,32.4054028 C10.1853139,33.7704028 9.40703879,33.5088028 9.15112126,33.4228028 C8.37304464,33.1614028 7.53699446,32.2486028 6.6930027,30.7782028 C5.74080686,29.1002028 4.78007382,26.7148028 3.88267491,23.7530028 Z M15.8093447,33.9272028 C15.4696435,33.8416028 15.1599217,33.7008028 14.9512566,33.5728028 C15.1277583,33.4940028 15.4225896,33.3924028 15.9107984,33.2910028 C18.4586569,32.7628028 18.8521623,32.3898028 19.7114416,31.2906028 C19.9083929,31.0386028 20.1315514,30.7532028 20.4406775,30.4054028 C20.5071691,30.330297 20.5570466,30.2418068 20.5870012,30.1458028 C20.9261068,29.8432028 21.127823,29.9260028 21.4544206,30.0624028 C21.7641424,30.1916028 22.0655255,30.5824028 22.1880244,31.0128028 C22.2457994,31.2160028 22.3109204,31.6018028 22.0982845,31.9016028 C20.3028911,34.4332028 17.6875291,34.4004028 15.8093447,33.9272028 Z M19.9667635,25.9512028 L19.8625303,26.2332028 C19.5984726,26.9464028 19.3528792,27.6094028 19.2005993,28.2392028 C17.8755461,28.2350028 16.5862301,27.6648028 15.6060402,26.6344028 C14.3594101,25.3242028 13.7931752,23.5016028 14.0524679,21.6336028 C14.4153983,19.0178028 14.2813841,16.7400028 14.2093142,15.5164028 C14.1993872,15.3450028 14.1904529,15.1950028 14.1850924,15.0766028 C14.7721739,14.5524028 17.4925633,13.0842028 19.432295,13.5318028 C20.317583,13.7362028 20.857015,14.3432028 21.0811662,15.3878028 C22.2418286,20.7954028 21.2348359,23.0492028 20.4255885,24.8604028 C20.2588153,25.2336028 20.1013734,25.5862028 19.9667635,25.9512028 L19.9667635,25.9512028 Z M34.5866228,35.0962028 C34.5530696,35.4498028 34.5155456,35.8482028 34.4639253,36.2880028 L34.1740575,37.1646028 C34.1510448,37.2340928 34.1388556,37.3067541 34.1379233,37.3800028 C34.1262095,38.3294028 34.0307119,38.6778028 33.9096028,39.1186028 C33.7837287,39.5770028 33.6409787,40.0968028 33.5534228,41.2336028 C33.3350292,44.0622028 31.8098482,45.6870028 28.754324,46.3466028 C25.7454566,46.9968028 25.2117822,45.3530028 24.741442,43.9032028 C24.6932799,43.7512167 24.6423792,43.6001251 24.588765,43.4500028 C24.1611108,42.2784028 24.2093559,40.6262028 24.2762637,38.3398028 C24.3090227,37.2174028 24.2268274,34.5372028 23.620686,33.0474028 C23.6294218,32.4610028 23.6417312,31.8656028 23.6584085,31.2638028 C23.6604258,31.187576 23.6501674,31.1115236 23.628032,31.0386028 C23.6088304,30.8980257 23.5797036,30.7590066 23.5408731,30.6226028 C23.2974636,29.7660028 22.7044258,29.0494028 21.99286,28.7524028 C21.7101396,28.6344028 21.1911571,28.4180028 20.5677429,28.5786028 C20.7007644,28.0266028 20.9312688,27.4036028 21.1812302,26.7288028 L21.2862576,26.4448028 C21.4043887,26.1248028 21.5523006,25.7934028 21.7091469,25.4424028 C22.5559182,23.5472028 23.7155879,20.9518028 22.456847,15.0880028 C21.985514,12.8918028 20.4110951,11.8194028 18.0246494,12.0684028 C16.5937746,12.2176028 15.2850017,12.7992028 14.632005,13.1326028 C14.5010902,13.1994441 14.3714853,13.2688573 14.2432645,13.3408028 C14.4255238,11.1280028 15.1140591,6.99260281 17.689316,4.37620281 C17.8806115,4.18202922 18.0815951,3.99779082 18.2914865,3.82420281 C18.3956932,3.803731 18.4939249,3.7596905 18.5787733,3.69540281 C20.0725851,2.55420281 21.9430265,1.99420281 24.1418524,2.03040281 C24.9540778,2.04380281 25.7335442,2.09820281 26.4731042,2.19240281 C30.3227867,2.90120281 32.9135297,5.08600281 34.4859632,6.95780281 C36.102671,8.88240281 36.978032,10.8208028 37.3274617,11.8664028 C34.7003859,11.5972028 32.9131326,12.1200028 32.0071965,13.4244028 C30.0364926,16.2622028 33.0852664,21.7702028 34.5506871,24.4172028 C34.8193111,24.9024028 35.0514039,25.3216028 35.1242679,25.4998028 C35.6013586,26.6648028 36.2192137,27.4424028 36.6702957,28.0102028 C36.8084792,28.1842028 36.942692,28.3530028 37.0445428,28.5002028 C36.2487961,28.7312028 34.8193111,29.2652028 34.9495531,31.9342028 C34.9251327,32.2468028 34.8655709,32.8280028 34.7839711,33.5638028 C34.6924444,33.9792028 34.6445963,34.4844028 34.5866228,35.0962028 Z M36.3546177,31.8540028 C36.2742092,30.1908028 36.8888878,30.0170028 37.5393034,29.8330028 C37.6292957,29.8081613 37.7186657,29.7810864 37.8073319,29.7518028 C37.8912322,29.8266879 37.9802661,29.895525 38.073772,29.9578028 C39.2060432,30.7108028 41.2152638,30.8004028 44.0434601,30.2266028 C43.6432043,30.5804028 43.0132382,31.0254028 42.1507823,31.4288028 C41.3371671,31.8094028 39.9753841,32.0948028 38.6817002,32.1560028 C37.2528108,32.2232028 36.5257589,31.9946028 36.3546177,31.8540028 L36.3546177,31.8540028 Z M37.4853007,13.3116028 C37.4735868,14.0132028 37.3776922,14.6500028 37.2760399,15.3150028 C37.1668432,16.0302028 37.0536756,16.7698028 37.0250859,17.6674028 C36.9968933,18.5410028 37.1052959,19.4492028 37.2101248,20.3276028 C37.421768,22.1016028 37.6389703,23.9282028 36.7981552,25.7304028 C36.6585902,25.4811835 36.5342069,25.223641 36.4256949,24.9592028 C36.3210645,24.7040028 36.0943323,24.2940028 35.7802427,23.7268028 C34.5580331,21.5186028 31.6954894,16.3476028 33.16091,14.2376028 C33.9143677,13.1522028 35.8229287,13.1054028 37.4853007,13.3116028 Z M37.9387651,27.3390028 C37.8827079,27.2670883 37.8262556,27.1954872 37.7694108,27.1242028 L37.6989292,27.0354028 C39.1407237,24.6364028 38.8587975,22.2630028 38.6078435,20.1584028 C38.5048014,19.2948028 38.407517,18.4792028 38.4321359,17.7132028 C38.4577475,16.9010028 38.5643633,16.2046028 38.6674053,15.5310028 C38.7942721,14.7010028 38.9231243,13.8424028 38.8875857,12.8300028 C38.91419,12.7238028 38.9249112,12.5984028 38.9110134,12.4496028 C38.8202808,11.4786028 37.7199744,8.57360281 35.4774699,5.94360281 C34.2711434,4.52900281 32.5200242,2.94920281 30.138939,1.86460281 C31.1814704,1.65140281 32.586535,1.45760281 34.1581743,1.49280281 C38.2312139,1.58400281 41.4537098,3.11980281 43.7361209,6.05760281 C43.7846145,6.12137865 43.8288536,6.18832571 43.8685468,6.25800281 C45.3041865,8.96920281 43.3201804,18.8082028 37.9387651,27.3390028 L37.9387651,27.3390028 Z M20.4343243,15.1066028 C20.3846894,15.4654028 19.8210355,15.9516028 19.2011949,15.9516028 C19.147462,15.9516354 19.0937923,15.947893 19.0405764,15.9404028 C18.6687118,15.8884028 18.2930749,15.6524028 18.0361646,15.3092028 C17.9452335,15.1882028 17.7973215,14.9532028 17.8267054,14.7404028 C17.8376251,14.6602028 17.8785242,14.5434028 18.0103545,14.4428028 C18.2450283,14.2640028 18.7088168,14.1976028 19.2206518,14.2694028 C19.8486325,14.3576028 20.4964671,14.6570028 20.4343243,15.1066028 L20.4343243,15.1066028 Z M36.1795058,14.2838028 C36.2015437,14.4422028 36.0822214,14.6858028 35.8755417,14.9042028 C35.7399392,15.0476028 35.4546378,15.2964028 35.0656988,15.3506028 C35.0163603,15.3575143 34.9666073,15.3609892 34.9167941,15.3610028 C34.3340804,15.3610028 33.8419008,14.8922028 33.8035826,14.6176028 C33.7559331,14.2646028 34.3279257,13.9964028 34.9175882,13.9136028 C35.5072508,13.8308028 36.1308636,13.9312028 36.1795058,14.2838028 L36.1795058,14.2838028 Z" id="Shape"></path>
        </g>
    </g>
</svg>