<?xml version="1.0" encoding="UTF-8"?>
<svg width="24px" height="24px" viewBox="0 0 24 24" version="1.1" xmlns="http://www.w3.org/2000/svg" xmlns:xlink="http://www.w3.org/1999/xlink">
    <title>postgresql</title>
    <g id="Page-1" stroke="none" stroke-width="1" fill="none" fill-rule="evenodd">
        <g id="postgresql" transform="translate(0.415382, 0.000249)" fill="#4169E1" fill-rule="nonzero">
            <path d="M23.1440175,14.7228014 C23.1303073,14.6809025 23.1113928,14.6408898 23.0877175,14.6037014 C22.9487175,14.3405014 22.6109175,14.2619014 22.0803175,14.3716014 C20.4270175,14.7127014 19.7868175,14.5028014 19.5547175,14.3525014 C20.8967175,12.3043014 21.9997175,9.8305014 22.5958175,7.5228014 C22.8672175,6.4721014 23.3940175,3.9991014 22.7180175,2.7912014 C22.6748256,2.70852515 22.6243243,2.62987839 22.5671175,2.5562014 C21.2777175,0.908601403 19.3853175,0.0248014034 17.0945175,0.000501403359 C15.5998175,-0.0152985966 14.3240175,0.346601403 13.9784175,0.479901403 C13.8072356,0.447952781 13.6352033,0.420742388 13.4625175,0.398301403 C13.0296145,0.319911477 12.5910102,0.277168123 12.1511175,0.270501403 C10.9689175,0.252101403 9.94731755,0.534701403 9.10131755,1.1111014 C8.24401755,0.790001403 4.31251755,-0.533898597 1.87941755,1.1899014 C0.520517549,2.1526014 -0.106782451,3.8733014 0.0148175492,6.3043014 C0.0557175492,7.1223014 0.521717549,9.6383014 1.25711755,12.0479014 C1.71691755,13.5544014 2.19581755,14.7498014 2.69051755,15.6299014 C3.24351755,16.6241014 3.81641755,17.2232014 4.40481755,17.4194014 C4.85221755,17.5685014 5.53751755,17.5635014 6.26291755,16.6915014 C7.06411755,15.7280014 7.85321755,14.8657014 8.20751755,14.4846014 C8.64261755,14.7201014 9.11391755,14.8471014 9.59751755,14.8618014 C9.59760135,14.8631725 9.59773477,14.86454 9.59791755,14.8659014 C9.51371099,14.9662258 9.43129792,15.0680419 9.35071755,15.1713014 C9.01181755,15.6015014 8.94131755,15.6910014 7.85051755,15.9156014 C7.54031755,15.9796014 6.71611755,16.1495014 6.70411755,16.7271014 C6.70161755,16.8495014 6.73701755,16.9580014 6.79601755,17.0539014 C7.02291755,17.4770014 7.71761755,17.6636014 7.81101755,17.6870014 C9.14551755,18.0205014 10.3154175,17.7790014 11.1824175,17.0083014 C11.1654175,19.2393014 11.2599175,21.4257014 11.5278175,22.0957014 C11.7490175,22.6486014 12.2896175,24 13.9970175,24 C14.2475175,24 14.5233175,23.9709014 14.8266175,23.9059014 C16.6085175,23.5238014 17.3823175,22.7363014 17.6816175,21 C17.8319175,20.1293014 18.0832175,18.1247014 18.2204175,16.8988014 C18.2373175,16.8285014 18.2561175,16.7781014 18.2774175,16.7626014 C18.2781175,16.7621014 18.3471175,16.7155014 18.7046175,16.7933014 C18.719232,16.7964677 18.7340262,16.7987386 18.7489175,16.8001014 L19.0028175,16.8224014 L19.0177175,16.8234014 C19.8645175,16.8618014 20.9291175,16.6808014 21.5489175,16.3926014 C22.1927175,16.0938014 23.3546175,15.3603014 23.1440175,14.7228014 L23.1440175,14.7228014 Z M1.95561755,11.8765014 C1.21211755,9.4407014 0.777717549,6.9914014 0.743317549,6.3046014 C0.634717549,4.1332014 1.16041755,2.6217014 2.30561755,1.8119014 C4.14231755,0.513301403 7.14541755,1.2711014 8.41361755,1.6819014 C8.41041755,1.6851014 8.40701755,1.6880014 8.40381755,1.6913014 C6.38001755,3.7353014 6.42801755,7.2273014 6.43301755,7.4408014 C6.43281755,7.5231014 6.43961755,7.6397014 6.44921755,7.8001014 C6.48401755,8.3874014 6.54881755,9.4805014 6.37571755,10.7185014 C6.21481755,11.8689014 6.56941755,12.9949014 7.34851755,13.8077014 C7.42911755,13.8918014 7.51331755,13.9708014 7.60031755,14.0451014 C7.25351755,14.4165014 6.49991755,15.2377014 5.69781755,16.2027014 C5.13011755,16.8852014 4.73811755,16.7544014 4.60921755,16.7114014 C4.21731755,16.5807014 3.79621755,16.1243014 3.37111755,15.3891014 C2.89151755,14.5501014 2.40761755,13.3574014 1.95561755,11.8765014 Z M7.96281755,16.9636014 C7.79171755,16.9208014 7.63571755,16.8504014 7.53061755,16.7864014 C7.61951755,16.7470014 7.76801755,16.6962014 8.01391755,16.6455014 C9.29721755,16.3814014 9.49541755,16.1949014 9.92821755,15.6453014 C10.0274175,15.5193014 10.1398175,15.3766014 10.2955175,15.2027014 C10.3290079,15.1651485 10.3541301,15.1209034 10.3692175,15.0729014 C10.5400175,14.9216014 10.6416175,14.9630014 10.8061175,15.0312014 C10.9621175,15.0958014 11.1139175,15.2912014 11.1756175,15.5064014 C11.2047175,15.6080014 11.2375175,15.8009014 11.1304175,15.9508014 C10.2261175,17.2166014 8.90881755,17.2002014 7.96281755,16.9636014 Z M10.0568175,12.9756014 L10.0043175,13.1166014 C9.87131755,13.4732014 9.74761755,13.8047014 9.67091755,14.1196014 C9.00351755,14.1175014 8.35411755,13.8324014 7.86041755,13.3172014 C7.23251755,12.6621014 6.94731755,11.7508014 7.07791755,10.8168014 C7.26071755,9.5089014 7.19321755,8.3700014 7.15691755,7.7582014 C7.15191755,7.6725014 7.14741755,7.5975014 7.14471755,7.5383014 C7.44041755,7.2762014 8.81061755,6.5421014 9.78761755,6.7659014 C10.2335175,6.8681014 10.5052175,7.1716014 10.6181175,7.6939014 C11.2027175,10.3977014 10.6955175,11.5246014 10.2879175,12.4302014 C10.2039175,12.6168014 10.1246175,12.7931014 10.0568175,12.9756014 L10.0568175,12.9756014 Z M17.4205175,17.5481014 C17.4036175,17.7249014 17.3847175,17.9241014 17.3587175,18.1440014 L17.2127175,18.5823014 C17.2011266,18.6170464 17.1949871,18.653377 17.1945175,18.6900014 C17.1886175,19.1647014 17.1405175,19.3389014 17.0795175,19.5593014 C17.0161175,19.7885014 16.9442175,20.0484014 16.9001175,20.6168014 C16.7901175,22.0311014 16.0219175,22.8435014 14.4829175,23.1733014 C12.9674175,23.4984014 12.6986175,22.6765014 12.4617175,21.9516014 C12.4374594,21.8756083 12.4118218,21.8000625 12.3848175,21.7250014 C12.1694175,21.1392014 12.1937175,20.3131014 12.2274175,19.1699014 C12.2439175,18.6087014 12.2025175,17.2686014 11.8972175,16.5237014 C11.9016175,16.2305014 11.9078175,15.9328014 11.9162175,15.6319014 C11.9172336,15.593788 11.9120667,15.5557618 11.9009175,15.5193014 C11.8912461,15.4490129 11.8765756,15.3795033 11.8570175,15.3113014 C11.7344175,14.8830014 11.4357175,14.5247014 11.0773175,14.3762014 C10.9349175,14.3172014 10.6735175,14.2090014 10.3595175,14.2893014 C10.4265175,14.0133014 10.5426175,13.7018014 10.6685175,13.3644014 L10.7214175,13.2224014 C10.7809175,13.0624014 10.8554175,12.8967014 10.9344175,12.7212014 C11.3609175,11.7736014 11.9450175,10.4759014 11.3110175,7.5440014 C11.0736175,6.4459014 10.2806175,5.9097014 9.07861755,6.0342014 C8.35791755,6.1088014 7.69871755,6.3996014 7.36981755,6.5663014 C7.30387869,6.59972204 7.23859955,6.63442867 7.17401755,6.6704014 C7.26581755,5.5640014 7.61261755,3.4963014 8.90971755,2.1881014 C9.00606889,2.09101461 9.10729988,1.99889541 9.21301755,1.9121014 C9.26550412,1.9018655 9.3149813,1.87984525 9.35771755,1.8477014 C10.1101175,1.2771014 11.0522175,0.997101403 12.1597175,1.0152014 C12.5688175,1.0219014 12.9614175,1.0491014 13.3339175,1.0962014 C15.2729175,1.4506014 16.5778175,2.5430014 17.3698175,3.4789014 C18.1841175,4.4412014 18.6250175,5.4104014 18.8010175,5.9332014 C17.4778175,5.7986014 16.5776175,6.0600014 16.1213175,6.7122014 C15.1287175,8.1311014 16.6643175,10.8851014 17.4024175,12.2086014 C17.5377175,12.4512014 17.6546175,12.6608014 17.6913175,12.7499014 C17.9316175,13.3324014 18.2428175,13.7212014 18.4700175,14.0051014 C18.5396175,14.0921014 18.6072175,14.1765014 18.6585175,14.2501014 C18.2577175,14.3656014 17.5377175,14.6326014 17.6033175,15.9671014 C17.5910175,16.1234014 17.5610175,16.4140014 17.5199175,16.7819014 C17.4738175,16.9896014 17.4497175,17.2422014 17.4205175,17.5481014 Z M18.3110175,15.9270014 C18.2705175,15.0954014 18.5801175,15.0085014 18.9077175,14.9165014 C18.9530447,14.9040807 18.9980584,14.8905432 19.0427175,14.8759014 C19.0849763,14.9133439 19.1298207,14.9477625 19.1769175,14.9789014 C19.7472175,15.3554014 20.7592175,15.4002014 22.1837175,15.1133014 C21.9821175,15.2902014 21.6648175,15.5127014 21.2304175,15.7144014 C20.8206175,15.9047014 20.1347175,16.0474014 19.4831175,16.0780014 C18.7634175,16.1116014 18.3972175,15.9973014 18.3110175,15.9270014 L18.3110175,15.9270014 Z M18.8805175,6.6558014 C18.8746175,7.0066014 18.8263175,7.3250014 18.7751175,7.6575014 C18.7201175,8.0151014 18.6631175,8.3849014 18.6487175,8.8337014 C18.6345175,9.2705014 18.6891175,9.7246014 18.7419175,10.1638014 C18.8485175,11.0508014 18.9579175,11.9641014 18.5344175,12.8652014 C18.4641217,12.7405917 18.4014727,12.6118205 18.3468175,12.4796014 C18.2941175,12.3520014 18.1799175,12.1470014 18.0217175,11.8634014 C17.4061175,10.7593014 15.9643175,8.1738014 16.7024175,7.1188014 C17.0819175,6.5761014 18.0432175,6.5527014 18.8805175,6.6558014 Z M19.1089175,13.6695014 C19.0806828,13.6335441 19.052249,13.5977436 19.0236175,13.5621014 L18.9881175,13.5177014 C19.7143175,12.3182014 19.5723175,11.1315014 19.4459175,10.0792014 C19.3940175,9.6474014 19.3450175,9.2396014 19.3574175,8.8566014 C19.3703175,8.4505014 19.4240175,8.1023014 19.4759175,7.7655014 C19.5398175,7.3505014 19.6047175,6.9212014 19.5868175,6.4150014 C19.6002175,6.3619014 19.6056175,6.2992014 19.5986175,6.2248014 C19.5529175,5.7393014 18.9987175,4.2868014 17.8692175,2.9718014 C17.2616175,2.2645014 16.3796175,1.4746014 15.1803175,0.932301403 C15.7054175,0.825701403 16.4131175,0.728801403 17.2047175,0.746401403 C19.2562175,0.792001403 20.8793175,1.5599014 22.0289175,3.0288014 C22.0533427,3.06068932 22.075625,3.09416285 22.0956175,3.1290014 C22.8187175,4.4846014 21.8194175,9.4041014 19.1089175,13.6695014 L19.1089175,13.6695014 Z M10.2923175,7.5533014 C10.2673175,7.7327014 9.98341755,7.9758014 9.67121755,7.9758014 C9.64415349,7.97581768 9.61712124,7.97394648 9.59031755,7.9702014 C9.40301755,7.9442014 9.21381755,7.8262014 9.08441755,7.6546014 C9.03861755,7.5941014 8.96411755,7.4766014 8.97891755,7.3702014 C8.98441755,7.3301014 9.00501755,7.2717014 9.07141755,7.2214014 C9.18961755,7.1320014 9.42321755,7.0988014 9.68101755,7.1347014 C9.99731755,7.1788014 10.3236175,7.3285014 10.2923175,7.5533014 L10.2923175,7.5533014 Z M18.2228175,7.1419014 C18.2339175,7.2211014 18.1738175,7.3429014 18.0697175,7.4521014 C18.0014175,7.5238014 17.8577175,7.6482014 17.6618175,7.6753014 C17.6369668,7.67875714 17.6119074,7.6804946 17.5868175,7.6805014 C17.2933175,7.6805014 17.0454175,7.4461014 17.0261175,7.3088014 C17.0021175,7.1323014 17.2902175,6.9982014 17.5872175,6.9568014 C17.8842175,6.9154014 18.1983175,6.9656014 18.2228175,7.1419014 L18.2228175,7.1419014 Z" id="Shape"></path>
        </g>
    </g>
</svg>