<?xml version="1.0" encoding="UTF-8"?>
<svg width="24px" height="22px" viewBox="0 0 24 22" version="1.1" xmlns="http://www.w3.org/2000/svg" xmlns:xlink="http://www.w3.org/1999/xlink">
    <title>react</title>
    <g id="Page-1" stroke="none" stroke-width="1" fill="none" fill-rule="evenodd">
        <g id="react" transform="translate(0.000000, 0.314250)" fill="#61DAFB" fill-rule="nonzero">
            <path d="M14.23,10.69 C14.23,11.9245183 13.2295182,12.9254479 11.995,12.926 C10.7600913,12.926 9.759,11.9249087 9.759,10.69 C9.759,9.45548172 10.7594818,8.45455211 11.994,8.454 C13.2289087,8.454 14.23,9.4550913 14.23,10.69 L14.23,10.69 Z M16.878,0 C15.532,0 13.771,0.96 11.99,2.622 C10.21,0.969 8.448,0.02 7.103,0.02 C6.693,0.02 6.32,0.113 5.997,0.298 C4.622,1.091 4.314,3.562 5.024,6.663 C1.98,7.603 0,9.106 0,10.69 C0,12.28 1.99,13.787 5.043,14.72 C4.339,17.833 4.653,20.308 6.031,21.1 C6.351,21.287 6.721,21.375 7.133,21.375 C8.478,21.375 10.24,20.415 12.021,18.751 C13.801,20.405 15.563,21.354 16.908,21.354 C17.318,21.354 17.691,21.264 18.014,21.079 C19.388,20.287 19.697,17.816 18.987,14.714 C22.02,13.782 24,12.276 24,10.69 C24,9.1 22.01,7.593 18.957,6.658 C19.661,3.548 19.347,1.071 17.969,0.278 C17.651,0.094 17.281,0.001 16.877,0 L16.878,0 Z M16.873,1.09 L16.873,1.096 C17.098,1.096 17.279,1.14 17.431,1.223 C18.097,1.605 18.386,3.058 18.161,4.927 C18.107,5.387 18.019,5.872 17.911,6.367 C16.951,6.131 15.905,5.95 14.804,5.833 C14.144,4.928 13.459,4.106 12.769,3.386 C14.361,1.906 15.856,1.094 16.874,1.091 L16.873,1.09 Z M7.103,1.11 C8.115,1.11 9.617,1.918 11.213,3.39 C10.527,4.11 9.843,4.927 9.193,5.832 C8.086,5.949 7.039,6.13 6.08,6.37 C5.968,5.88 5.885,5.406 5.826,4.95 C5.596,3.082 5.88,1.63 6.54,1.243 C6.73,1.153 6.94,1.116 7.103,1.111 L7.103,1.11 Z M11.985,4.16 C12.44,4.628 12.895,5.152 13.345,5.724 C12.905,5.704 12.455,5.69 12,5.69 C11.54,5.69 11.085,5.7 10.64,5.724 C11.08,5.152 11.535,4.628 11.985,4.159 L11.985,4.16 Z M12,6.786 C12.74,6.786 13.477,6.82 14.202,6.879 C14.608,7.461 15.004,8.082 15.385,8.739 C15.757,9.379 16.095,10.029 16.403,10.685 C16.095,11.34 15.757,11.995 15.39,12.635 C15.01,13.295 14.617,13.923 14.21,14.505 C13.482,14.568 12.744,14.603 12,14.603 C11.26,14.603 10.523,14.568 9.798,14.51 C9.392,13.928 8.996,13.306 8.615,12.65 C8.243,12.01 7.905,11.36 7.597,10.704 C7.9,10.047 8.243,9.391 8.61,8.75 C8.99,8.09 9.383,7.464 9.79,6.882 C10.518,6.818 11.256,6.784 12,6.784 L12,6.786 Z M8.365,7.04 C8.125,7.417 7.885,7.803 7.661,8.2 C7.436,8.59 7.226,8.982 7.026,9.374 C6.761,8.718 6.536,8.064 6.35,7.427 C6.99,7.277 7.665,7.144 8.365,7.041 L8.365,7.04 Z M15.625,7.04 C16.32,7.143 16.99,7.27 17.631,7.427 C17.451,8.059 17.226,8.709 16.971,9.36 C16.771,8.97 16.561,8.577 16.331,8.186 C16.106,7.794 15.866,7.412 15.626,7.04 L15.625,7.04 Z M18.688,7.715 C19.172,7.865 19.632,8.032 20.063,8.213 C21.795,8.953 22.915,9.921 22.915,10.689 C22.91,11.457 21.79,12.429 20.058,13.164 C19.638,13.344 19.178,13.506 18.703,13.657 C18.423,12.699 18.057,11.701 17.603,10.677 C18.053,9.66 18.413,8.667 18.688,7.713 L18.688,7.715 Z M5.293,7.719 C5.571,8.679 5.938,9.676 6.393,10.699 C5.943,11.716 5.581,12.709 5.307,13.663 C4.823,13.513 4.363,13.345 3.937,13.163 C2.205,12.426 1.085,11.457 1.085,10.689 C1.085,9.921 2.205,8.947 3.937,8.213 C4.357,8.033 4.817,7.871 5.293,7.719 L5.293,7.719 Z M16.971,11.999 C17.236,12.656 17.461,13.311 17.647,13.947 C17.007,14.104 16.331,14.237 15.631,14.337 C15.871,13.962 16.111,13.575 16.336,13.179 C16.561,12.789 16.771,12.391 16.972,11.999 L16.971,11.999 Z M7.026,12.019 C7.226,12.411 7.436,12.802 7.666,13.194 C7.896,13.584 8.131,13.966 8.371,14.337 C7.676,14.235 7.006,14.107 6.365,13.951 C6.545,13.321 6.771,12.669 7.025,12.018 L7.026,12.019 Z M17.92,15.006 C18.032,15.499 18.12,15.974 18.174,16.429 C18.404,18.297 18.12,19.749 17.46,20.137 C17.313,20.227 17.122,20.265 16.897,20.265 C15.885,20.265 14.383,19.458 12.787,17.985 C13.473,17.265 14.157,16.449 14.807,15.545 C15.914,15.427 16.961,15.245 17.92,15.005 L17.92,15.006 Z M6.09,15.016 C7.05,15.25 8.096,15.431 9.197,15.548 C9.857,16.453 10.542,17.275 11.232,17.994 C9.637,19.477 8.14,20.289 7.122,20.289 C6.902,20.284 6.716,20.239 6.569,20.157 C5.903,19.777 5.614,18.323 5.839,16.454 C5.893,15.994 5.981,15.51 6.089,15.016 L6.09,15.016 Z M10.65,15.656 C11.09,15.676 11.54,15.69 11.995,15.69 C12.455,15.69 12.91,15.68 13.355,15.656 C12.915,16.228 12.46,16.751 12.01,17.221 C11.555,16.751 11.1,16.228 10.65,15.656 Z" id="Shape"></path>
        </g>
    </g>
</svg>