<?xml version="1.0" encoding="UTF-8"?>
<svg width="48px" height="43px" viewBox="0 0 48 43" version="1.1" xmlns="http://www.w3.org/2000/svg" xmlns:xlink="http://www.w3.org/1999/xlink">
    <title>react</title>
    <g id="Page-1" stroke="none" stroke-width="1" fill="none" fill-rule="evenodd">
        <g id="react" fill="#61DAFB" fill-rule="nonzero">
            <path d="M28.46,21.5050292 C28.46,23.9885046 26.4590363,26.0020706 23.99,26.0031813 C21.5201826,26.0031813 19.518,23.98929 19.518,21.5050292 C19.518,19.0215539 21.5189637,17.0079879 23.988,17.0068772 C26.4578174,17.0068772 28.46,19.0207685 28.46,21.5050292 L28.46,21.5050292 Z M33.756,0 C31.064,0 27.542,1.93122807 23.98,5.27466667 C20.42,1.94933333 16.896,0.0402339181 14.206,0.0402339181 C13.386,0.0402339181 12.64,0.227321637 11.994,0.59948538 C9.244,2.19476023 8.628,7.16566082 10.048,13.4039298 C3.96,15.294924 0,18.3185029 0,21.5050292 C0,24.7036257 3.98,27.7352515 10.086,29.6121637 C8.678,35.8745731 9.306,40.8535205 12.062,42.4467836 C12.702,42.8229708 13.442,43 14.266,43 C16.956,43 20.48,41.0687719 24.042,37.7213099 C27.602,41.048655 31.126,42.9577544 33.816,42.9577544 C34.636,42.9577544 35.382,42.7767018 36.028,42.404538 C38.776,40.8112749 39.394,35.8403743 37.974,29.6000936 C44.04,27.725193 48,24.6955789 48,21.5050292 C48,18.3064327 44.02,15.274807 37.914,13.3938713 C39.322,7.13749708 38.694,2.15452632 35.938,0.559251462 C35.302,0.189099415 34.562,0.00201169591 33.754,0 L33.756,0 Z M33.746,2.19274854 L33.746,2.20481871 C34.196,2.20481871 34.558,2.29333333 34.862,2.46030409 C36.194,3.22877193 36.772,6.15176608 36.322,9.91162573 C36.214,10.8370058 36.038,11.8126784 35.822,12.8084678 C33.902,12.3337076 31.81,11.9695906 29.608,11.7342222 C28.288,9.91363743 26.918,8.26002339 25.538,6.81160234 C28.722,3.8342924 31.712,2.20079532 33.748,2.19476023 L33.746,2.19274854 Z M14.206,2.23298246 C16.23,2.23298246 19.234,3.85843275 22.426,6.81964912 C21.054,8.26807018 19.686,9.91162573 18.386,11.7322105 C16.172,11.9675789 14.078,12.3316959 12.16,12.8145029 C11.936,11.8287719 11.77,10.8752281 11.652,9.95789474 C11.192,6.20004678 11.76,3.27906433 13.08,2.50053801 C13.46,2.31948538 13.88,2.24505263 14.206,2.23499415 L14.206,2.23298246 Z M23.97,8.36865497 C24.88,9.31012865 25.79,10.3642573 26.69,11.5149474 C25.81,11.4747135 24.91,11.4465497 24,11.4465497 C23.08,11.4465497 22.17,11.4666667 21.28,11.5149474 C22.16,10.3642573 23.07,9.31012865 23.97,8.36664327 L23.97,8.36865497 Z M24,13.6513684 C25.48,13.6513684 26.954,13.7197661 28.404,13.8384561 C29.216,15.0092632 30.008,16.2585263 30.77,17.5802105 C31.514,18.8676959 32.19,20.1752982 32.806,21.4949708 C32.19,22.8126316 31.514,24.1302924 30.78,25.4177778 C30.02,26.7454971 29.234,28.0088421 28.42,29.1796491 C26.964,29.306386 25.488,29.3767953 24,29.3767953 C22.52,29.3767953 21.046,29.306386 19.596,29.1897076 C18.784,28.0189006 17.992,26.7676257 17.23,25.4479532 C16.486,24.1604678 15.81,22.8528655 15.194,21.533193 C15.8,20.2115088 16.486,18.8918363 17.22,17.6023392 C17.98,16.2746199 18.766,15.0152982 19.58,13.8444912 C21.036,13.7157427 22.512,13.647345 24,13.647345 L24,13.6513684 Z M16.73,14.1623392 C16.25,14.9207485 15.77,15.6972632 15.322,16.4959064 C14.872,17.2804678 14.452,18.0690526 14.052,18.8576374 C13.522,17.5379649 13.072,16.2223158 12.7,14.9408655 C13.98,14.6391111 15.33,14.3715556 16.73,14.1643509 L16.73,14.1623392 Z M31.25,14.1623392 C32.64,14.3695439 33.98,14.6250292 35.262,14.9408655 C34.902,16.2122573 34.452,17.5198596 33.942,18.8294737 C33.542,18.0449123 33.122,17.2543158 32.662,16.4677427 C32.212,15.6791579 31.732,14.9106901 31.252,14.1623392 L31.25,14.1623392 Z M37.376,15.5202339 C38.344,15.8219883 39.264,16.1579415 40.126,16.5220585 C43.59,18.0107135 45.83,19.9580351 45.83,21.5030175 C45.82,23.048 43.58,25.0033684 40.116,26.4819649 C39.276,26.8440702 38.356,27.1699649 37.406,27.473731 C36.846,25.5465263 36.114,23.5388538 35.206,21.4788772 C36.106,19.4329825 36.826,17.4353684 37.376,15.5162105 L37.376,15.5202339 Z M10.586,15.5282807 C11.142,17.4595088 11.876,19.4651696 12.786,21.5231345 C11.886,23.5690292 11.162,25.5666433 10.614,27.4858012 C9.646,27.1840468 8.726,26.8460819 7.874,26.4799532 C4.41,24.9973333 2.17,23.048 2.17,21.5030175 C2.17,19.9580351 4.41,17.9986433 7.874,16.5220585 C8.714,16.1599532 9.634,15.8340585 10.586,15.5282807 L10.586,15.5282807 Z M33.942,24.1383392 C34.472,25.4600234 34.922,26.7776842 35.294,28.0571228 C34.014,28.3729591 32.662,28.6405146 31.262,28.8416842 C31.742,28.0872982 32.222,27.3087719 32.672,26.5121404 C33.122,25.7275789 33.542,24.926924 33.944,24.1383392 L33.942,24.1383392 Z M14.052,24.1785731 C14.452,24.9671579 14.872,25.753731 15.332,26.5423158 C15.792,27.3268772 16.262,28.095345 16.742,28.8416842 C15.352,28.6364912 14.012,28.3789942 12.73,28.0651696 C13.09,26.7978012 13.542,25.4861754 14.05,24.1765614 L14.052,24.1785731 Z M35.84,30.1875088 C36.064,31.1792749 36.24,32.1348304 36.348,33.050152 C36.808,36.808 36.24,39.7289825 34.92,40.5095205 C34.626,40.6905731 34.244,40.7670175 33.794,40.7670175 C31.77,40.7670175 28.766,39.1435789 25.574,36.1803509 C26.946,34.7319298 28.314,33.090386 29.614,31.2718129 C31.828,31.0344327 33.922,30.6683041 35.84,30.1854971 L35.84,30.1875088 Z M12.18,30.2076257 C14.1,30.6783626 16.192,31.0424795 18.394,31.277848 C19.714,33.0984327 21.084,34.7520468 22.464,36.1984561 C19.274,39.1818012 16.28,40.8152982 14.244,40.8152982 C13.804,40.8052398 13.432,40.7147135 13.138,40.5497544 C11.806,39.7853099 11.228,36.8603041 11.678,33.1004444 C11.786,32.1750643 11.962,31.2014035 12.178,30.2076257 L12.18,30.2076257 Z M21.3,31.4951111 C22.18,31.535345 23.08,31.5635088 23.99,31.5635088 C24.91,31.5635088 25.82,31.5433918 26.71,31.4951111 C25.83,32.6458012 24.92,33.6979181 24.02,34.6434152 C23.11,33.6979181 22.2,32.6458012 21.3,31.4951111 Z" id="Shape"></path>
        </g>
    </g>
</svg>