<?xml version="1.0" encoding="UTF-8"?>
<svg width="48px" height="48px" viewBox="0 0 48 48" version="1.1" xmlns="http://www.w3.org/2000/svg" xmlns:xlink="http://www.w3.org/1999/xlink">
    <title>sass</title>
    <g id="Page-1" stroke="none" stroke-width="1" fill="none" fill-rule="evenodd">
        <g id="sass" fill="#CC6699" fill-rule="nonzero">
            <path d="M24,0 C37.254,0 48,10.746 48,24 C48,37.254 37.254,48 24,48 C10.746,48 0,37.254 0,24 C0,10.746 10.746,0 24,0 Z M19.23,31.996 C19.58,33.286 19.542,34.492 19.182,35.58 L19.052,35.94 C19.004,36.062 18.948,36.18 18.896,36.292 C18.616,36.872 18.244,37.412 17.786,37.912 C16.39,39.43 14.442,40.006 13.606,39.522 C12.706,38.998 13.154,36.852 14.774,35.142 C16.516,33.306 19.014,32.124 19.014,32.124 L19.014,32.118 L19.23,31.996 L19.23,31.996 Z M39.052,10.274 C37.968,6.008 30.898,4.606 24.208,6.984 C20.23,8.398 15.92,10.62 12.822,13.518 C9.136,16.96 8.55,19.96 8.792,21.214 C9.646,25.636 15.706,28.528 18.198,30.674 L18.198,30.686 C17.464,31.046 12.086,33.744 10.826,36.536 C9.476,39.476 11.036,41.578 12.056,41.846 C15.206,42.718 18.446,41.126 20.186,38.548 C21.866,36.026 21.718,32.786 20.994,31.196 C21.986,30.926 23.154,30.806 24.654,30.988 C28.856,31.468 29.696,34.108 29.514,35.188 C29.334,36.266 28.468,36.896 28.166,37.076 C27.866,37.258 27.776,37.316 27.804,37.438 C27.834,37.618 27.986,37.618 28.224,37.588 C28.554,37.528 30.416,36.688 30.506,34.646 C30.596,32.066 28.134,29.188 23.756,29.246 C21.956,29.278 20.814,29.428 20.006,29.758 C19.946,29.668 19.884,29.608 19.796,29.548 C17.096,26.638 12.086,24.598 12.296,20.728 C12.356,19.318 12.866,15.6 21.896,11.1 C29.306,7.408 35.218,8.43 36.238,10.68 C37.704,13.888 33.086,19.86 25.376,20.728 C22.436,21.058 20.906,19.92 20.514,19.498 C20.096,19.048 20.036,19.018 19.886,19.11 C19.646,19.23 19.796,19.62 19.886,19.86 C20.126,20.46 21.056,21.51 22.678,22.05 C24.086,22.5 27.538,22.768 31.678,21.15 C36.326,19.352 39.956,14.34 38.906,10.14 L39.052,10.274 Z" id="Shape"></path>
        </g>
    </g>
</svg>